solid OpenSCAD_Model
  facet normal 1 -0 0
    outer loop
      vertex 68.5 -20 20
      vertex 68.5 -4.5 0
      vertex 68.5 -4.5 20
    endloop
  endfacet
  facet normal 1 0 0
    outer loop
      vertex 68.5 -4.5 0
      vertex 68.5 -20 20
      vertex 68.5 -20 0
    endloop
  endfacet
  facet normal 0 1 -0
    outer loop
      vertex 64.5 -16 0
      vertex 49.5 -16 20
      vertex 64.5 -16 20
    endloop
  endfacet
  facet normal 0 1 0
    outer loop
      vertex 49.5 -16 20
      vertex 64.5 -16 0
      vertex 49.5 -16 0
    endloop
  endfacet
  facet normal 0 1 -0
    outer loop
      vertex 68.5 -4.5 0
      vertex 54.7 -4.5 20
      vertex 68.5 -4.5 20
    endloop
  endfacet
  facet normal 0 1 0
    outer loop
      vertex 54.7 -4.5 20
      vertex 68.5 -4.5 0
      vertex 54.7 -4.5 0
    endloop
  endfacet
  facet normal -1 0 0
    outer loop
      vertex 64.5 -16 0
      vertex 64.5 -8.5 20
      vertex 64.5 -8.5 0
    endloop
  endfacet
  facet normal -1 -0 0
    outer loop
      vertex 64.5 -8.5 20
      vertex 64.5 -16 0
      vertex 64.5 -16 20
    endloop
  endfacet
  facet normal 0 0 1
    outer loop
      vertex 49.5 0 20
      vertex 45.5 -4 20
      vertex 49.5 -16 20
    endloop
  endfacet
  facet normal 0 0 1
    outer loop
      vertex 49.5 0 20
      vertex 4 -4 20
      vertex 45.5 -4 20
    endloop
  endfacet
  facet normal 0 0 1
    outer loop
      vertex 4 -4 20
      vertex 0 0 20
      vertex 4 -20 20
    endloop
  endfacet
  facet normal -0 0 1
    outer loop
      vertex 0 0 20
      vertex 4 -4 20
      vertex 49.5 0 20
    endloop
  endfacet
  facet normal 0 0 1
    outer loop
      vertex 68.5 -4.5 20
      vertex 64.5 -8.5 20
      vertex 68.5 -20 20
    endloop
  endfacet
  facet normal -0 0 1
    outer loop
      vertex 54.7 -4.5 20
      vertex 64.5 -8.5 20
      vertex 68.5 -4.5 20
    endloop
  endfacet
  facet normal 0 0 1
    outer loop
      vertex 64.5 -8.5 20
      vertex 54.7 -4.5 20
      vertex 54.7 -8.5 20
    endloop
  endfacet
  facet normal -0 0 1
    outer loop
      vertex 64.5 -16 20
      vertex 68.5 -20 20
      vertex 64.5 -8.5 20
    endloop
  endfacet
  facet normal -0 0 1
    outer loop
      vertex 49.5 -16 20
      vertex 68.5 -20 20
      vertex 64.5 -16 20
    endloop
  endfacet
  facet normal 0 0 1
    outer loop
      vertex 49.5 -16 20
      vertex 45.5 -20 20
      vertex 68.5 -20 20
    endloop
  endfacet
  facet normal 0 0 1
    outer loop
      vertex 45.5 -20 20
      vertex 49.5 -16 20
      vertex 45.5 -4 20
    endloop
  endfacet
  facet normal -0 0 1
    outer loop
      vertex 4 -20 20
      vertex 15 -24 20
      vertex 15 -20 20
    endloop
  endfacet
  facet normal 0 0 1
    outer loop
      vertex 4 -20 20
      vertex 0 -24 20
      vertex 15 -24 20
    endloop
  endfacet
  facet normal 0 0 1
    outer loop
      vertex 0 -24 20
      vertex 4 -20 20
      vertex 0 0 20
    endloop
  endfacet
  facet normal 0 0 -1
    outer loop
      vertex 15 -24 0
      vertex 4 -20 0
      vertex 15 -20 0
    endloop
  endfacet
  facet normal -0 0 -1
    outer loop
      vertex 4 -20 0
      vertex 0 -24 0
      vertex 4 -4 0
    endloop
  endfacet
  facet normal 0 0 -1
    outer loop
      vertex 0 -24 0
      vertex 4 -20 0
      vertex 15 -24 0
    endloop
  endfacet
  facet normal 0 0 -1
    outer loop
      vertex 68.5 -20 0
      vertex 64.5 -16 0
      vertex 68.5 -4.5 0
    endloop
  endfacet
  facet normal 0 0 -1
    outer loop
      vertex 68.5 -20 0
      vertex 49.5 -16 0
      vertex 64.5 -16 0
    endloop
  endfacet
  facet normal 0 0 -1
    outer loop
      vertex 45.5 -20 0
      vertex 49.5 -16 0
      vertex 68.5 -20 0
    endloop
  endfacet
  facet normal 0 0 -1
    outer loop
      vertex 45.5 -4 0
      vertex 49.5 -16 0
      vertex 45.5 -20 0
    endloop
  endfacet
  facet normal 0 0 -1
    outer loop
      vertex 49.5 -16 0
      vertex 45.5 -4 0
      vertex 49.5 0 0
    endloop
  endfacet
  facet normal 0 0 -1
    outer loop
      vertex 4 -4 0
      vertex 49.5 0 0
      vertex 45.5 -4 0
    endloop
  endfacet
  facet normal 0 0 -1
    outer loop
      vertex 4 -4 0
      vertex 0 0 0
      vertex 49.5 0 0
    endloop
  endfacet
  facet normal 0 0 -1
    outer loop
      vertex 0 0 0
      vertex 4 -4 0
      vertex 0 -24 0
    endloop
  endfacet
  facet normal 0 0 -1
    outer loop
      vertex 64.5 -8.5 0
      vertex 68.5 -4.5 0
      vertex 64.5 -16 0
    endloop
  endfacet
  facet normal 0 0 -1
    outer loop
      vertex 54.7 -4.5 0
      vertex 64.5 -8.5 0
      vertex 54.7 -8.5 0
    endloop
  endfacet
  facet normal 0 0 -1
    outer loop
      vertex 64.5 -8.5 0
      vertex 54.7 -4.5 0
      vertex 68.5 -4.5 0
    endloop
  endfacet
  facet normal 0 -1 0
    outer loop
      vertex 54.7 -8.5 0
      vertex 64.5 -8.5 20
      vertex 54.7 -8.5 20
    endloop
  endfacet
  facet normal 0 -1 -0
    outer loop
      vertex 64.5 -8.5 20
      vertex 54.7 -8.5 0
      vertex 64.5 -8.5 0
    endloop
  endfacet
  facet normal -1 0 0
    outer loop
      vertex 54.7 -8.5 0
      vertex 54.7 -4.5 20
      vertex 54.7 -4.5 0
    endloop
  endfacet
  facet normal -1 -0 0
    outer loop
      vertex 54.7 -4.5 20
      vertex 54.7 -8.5 0
      vertex 54.7 -8.5 20
    endloop
  endfacet
  facet normal 0 -1 0
    outer loop
      vertex 45.5 -20 0
      vertex 68.5 -20 20
      vertex 45.5 -20 20
    endloop
  endfacet
  facet normal 0 -1 -0
    outer loop
      vertex 68.5 -20 20
      vertex 45.5 -20 0
      vertex 68.5 -20 0
    endloop
  endfacet
  facet normal -1 0 0
    outer loop
      vertex 45.5 -20 0
      vertex 45.5 -4 20
      vertex 45.5 -4 0
    endloop
  endfacet
  facet normal -1 -0 0
    outer loop
      vertex 45.5 -4 20
      vertex 45.5 -20 0
      vertex 45.5 -20 20
    endloop
  endfacet
  facet normal 1 -0 0
    outer loop
      vertex 49.5 -16 20
      vertex 49.5 0 0
      vertex 49.5 0 20
    endloop
  endfacet
  facet normal 1 0 0
    outer loop
      vertex 49.5 0 0
      vertex 49.5 -16 20
      vertex 49.5 -16 0
    endloop
  endfacet
  facet normal 0 1 -0
    outer loop
      vertex 49.5 0 0
      vertex 0 0 20
      vertex 49.5 0 20
    endloop
  endfacet
  facet normal 0 1 0
    outer loop
      vertex 0 0 20
      vertex 49.5 0 0
      vertex 0 0 0
    endloop
  endfacet
  facet normal 0 -1 0
    outer loop
      vertex 4 -4 0
      vertex 45.5 -4 20
      vertex 4 -4 20
    endloop
  endfacet
  facet normal 0 -1 -0
    outer loop
      vertex 45.5 -4 20
      vertex 4 -4 0
      vertex 45.5 -4 0
    endloop
  endfacet
  facet normal -1 0 0
    outer loop
      vertex 0 -24 0
      vertex 0 0 20
      vertex 0 0 0
    endloop
  endfacet
  facet normal -1 -0 0
    outer loop
      vertex 0 0 20
      vertex 0 -24 0
      vertex 0 -24 20
    endloop
  endfacet
  facet normal 1 -0 0
    outer loop
      vertex 4 -20 20
      vertex 4 -4 0
      vertex 4 -4 20
    endloop
  endfacet
  facet normal 1 0 0
    outer loop
      vertex 4 -4 0
      vertex 4 -20 20
      vertex 4 -20 0
    endloop
  endfacet
  facet normal 0 1 -0
    outer loop
      vertex 15 -20 0
      vertex 4 -20 20
      vertex 15 -20 20
    endloop
  endfacet
  facet normal 0 1 0
    outer loop
      vertex 4 -20 20
      vertex 15 -20 0
      vertex 4 -20 0
    endloop
  endfacet
  facet normal 1 -0 0
    outer loop
      vertex 15 -24 20
      vertex 15 -20 0
      vertex 15 -20 20
    endloop
  endfacet
  facet normal 1 0 0
    outer loop
      vertex 15 -20 0
      vertex 15 -24 20
      vertex 15 -24 0
    endloop
  endfacet
  facet normal 0 -1 0
    outer loop
      vertex 0 -24 0
      vertex 15 -24 20
      vertex 0 -24 20
    endloop
  endfacet
  facet normal 0 -1 -0
    outer loop
      vertex 15 -24 20
      vertex 0 -24 0
      vertex 15 -24 0
    endloop
  endfacet
  facet normal -1 0 0
    outer loop
      vertex -78.5 -20 0
      vertex -78.5 -4.5 20
      vertex -78.5 -4.5 0
    endloop
  endfacet
  facet normal -1 -0 0
    outer loop
      vertex -78.5 -4.5 20
      vertex -78.5 -20 0
      vertex -78.5 -20 20
    endloop
  endfacet
  facet normal 0 1 -0
    outer loop
      vertex -59.5 -16 0
      vertex -74.5 -16 20
      vertex -59.5 -16 20
    endloop
  endfacet
  facet normal 0 1 0
    outer loop
      vertex -74.5 -16 20
      vertex -59.5 -16 0
      vertex -74.5 -16 0
    endloop
  endfacet
  facet normal 0 1 -0
    outer loop
      vertex -64.7 -4.5 0
      vertex -78.5 -4.5 20
      vertex -64.7 -4.5 20
    endloop
  endfacet
  facet normal 0 1 0
    outer loop
      vertex -78.5 -4.5 20
      vertex -64.7 -4.5 0
      vertex -78.5 -4.5 0
    endloop
  endfacet
  facet normal 1 -0 0
    outer loop
      vertex -74.5 -16 20
      vertex -74.5 -8.5 0
      vertex -74.5 -8.5 20
    endloop
  endfacet
  facet normal 1 0 0
    outer loop
      vertex -74.5 -8.5 0
      vertex -74.5 -16 20
      vertex -74.5 -16 0
    endloop
  endfacet
  facet normal 0 0 -1
    outer loop
      vertex -55.5 -20 0
      vertex -59.5 -16 0
      vertex -55.5 -4 0
    endloop
  endfacet
  facet normal 0 0 -1
    outer loop
      vertex -55.5 -20 0
      vertex -74.5 -16 0
      vertex -59.5 -16 0
    endloop
  endfacet
  facet normal -0 0 -1
    outer loop
      vertex -74.5 -16 0
      vertex -78.5 -20 0
      vertex -74.5 -8.5 0
    endloop
  endfacet
  facet normal 0 0 -1
    outer loop
      vertex -78.5 -20 0
      vertex -74.5 -16 0
      vertex -55.5 -20 0
    endloop
  endfacet
  facet normal 0 0 -1
    outer loop
      vertex -10 -24 0
      vertex -14 -20 0
      vertex -10 0 0
    endloop
  endfacet
  facet normal 0 0 -1
    outer loop
      vertex -25 -24 0
      vertex -14 -20 0
      vertex -10 -24 0
    endloop
  endfacet
  facet normal -0 0 -1
    outer loop
      vertex -14 -20 0
      vertex -25 -24 0
      vertex -25 -20 0
    endloop
  endfacet
  facet normal 0 0 -1
    outer loop
      vertex -14 -4 0
      vertex -10 0 0
      vertex -14 -20 0
    endloop
  endfacet
  facet normal 0 0 -1
    outer loop
      vertex -55.5 -4 0
      vertex -10 0 0
      vertex -14 -4 0
    endloop
  endfacet
  facet normal 0 0 -1
    outer loop
      vertex -55.5 -4 0
      vertex -59.5 0 0
      vertex -10 0 0
    endloop
  endfacet
  facet normal 0 0 -1
    outer loop
      vertex -59.5 0 0
      vertex -55.5 -4 0
      vertex -59.5 -16 0
    endloop
  endfacet
  facet normal 0 0 -1
    outer loop
      vertex -74.5 -8.5 0
      vertex -64.7 -4.5 0
      vertex -64.7 -8.5 0
    endloop
  endfacet
  facet normal 0 0 -1
    outer loop
      vertex -74.5 -8.5 0
      vertex -78.5 -4.5 0
      vertex -64.7 -4.5 0
    endloop
  endfacet
  facet normal 0 0 -1
    outer loop
      vertex -78.5 -4.5 0
      vertex -74.5 -8.5 0
      vertex -78.5 -20 0
    endloop
  endfacet
  facet normal 0 0 1
    outer loop
      vertex -64.7 -4.5 20
      vertex -74.5 -8.5 20
      vertex -64.7 -8.5 20
    endloop
  endfacet
  facet normal 0 0 1
    outer loop
      vertex -74.5 -8.5 20
      vertex -78.5 -4.5 20
      vertex -74.5 -16 20
    endloop
  endfacet
  facet normal -0 0 1
    outer loop
      vertex -78.5 -4.5 20
      vertex -74.5 -8.5 20
      vertex -64.7 -4.5 20
    endloop
  endfacet
  facet normal 0 0 1
    outer loop
      vertex -10 0 20
      vertex -14 -4 20
      vertex -10 -24 20
    endloop
  endfacet
  facet normal 0 0 1
    outer loop
      vertex -10 0 20
      vertex -55.5 -4 20
      vertex -14 -4 20
    endloop
  endfacet
  facet normal -0 0 1
    outer loop
      vertex -59.5 0 20
      vertex -55.5 -4 20
      vertex -10 0 20
    endloop
  endfacet
  facet normal 0 0 1
    outer loop
      vertex -59.5 -16 20
      vertex -55.5 -4 20
      vertex -59.5 0 20
    endloop
  endfacet
  facet normal 0 0 1
    outer loop
      vertex -55.5 -4 20
      vertex -59.5 -16 20
      vertex -55.5 -20 20
    endloop
  endfacet
  facet normal -0 0 1
    outer loop
      vertex -74.5 -16 20
      vertex -55.5 -20 20
      vertex -59.5 -16 20
    endloop
  endfacet
  facet normal 0 0 1
    outer loop
      vertex -74.5 -16 20
      vertex -78.5 -20 20
      vertex -55.5 -20 20
    endloop
  endfacet
  facet normal 0 0 1
    outer loop
      vertex -78.5 -20 20
      vertex -74.5 -16 20
      vertex -78.5 -4.5 20
    endloop
  endfacet
  facet normal -0 0 1
    outer loop
      vertex -14 -20 20
      vertex -10 -24 20
      vertex -14 -4 20
    endloop
  endfacet
  facet normal 0 0 1
    outer loop
      vertex -25 -24 20
      vertex -14 -20 20
      vertex -25 -20 20
    endloop
  endfacet
  facet normal 0 0 1
    outer loop
      vertex -14 -20 20
      vertex -25 -24 20
      vertex -10 -24 20
    endloop
  endfacet
  facet normal 0 -1 0
    outer loop
      vertex -74.5 -8.5 0
      vertex -64.7 -8.5 20
      vertex -74.5 -8.5 20
    endloop
  endfacet
  facet normal 0 -1 -0
    outer loop
      vertex -64.7 -8.5 20
      vertex -74.5 -8.5 0
      vertex -64.7 -8.5 0
    endloop
  endfacet
  facet normal 1 -0 0
    outer loop
      vertex -64.7 -8.5 20
      vertex -64.7 -4.5 0
      vertex -64.7 -4.5 20
    endloop
  endfacet
  facet normal 1 0 0
    outer loop
      vertex -64.7 -4.5 0
      vertex -64.7 -8.5 20
      vertex -64.7 -8.5 0
    endloop
  endfacet
  facet normal 0 -1 0
    outer loop
      vertex -78.5 -20 0
      vertex -55.5 -20 20
      vertex -78.5 -20 20
    endloop
  endfacet
  facet normal 0 -1 -0
    outer loop
      vertex -55.5 -20 20
      vertex -78.5 -20 0
      vertex -55.5 -20 0
    endloop
  endfacet
  facet normal 1 -0 0
    outer loop
      vertex -55.5 -20 20
      vertex -55.5 -4 0
      vertex -55.5 -4 20
    endloop
  endfacet
  facet normal 1 0 0
    outer loop
      vertex -55.5 -4 0
      vertex -55.5 -20 20
      vertex -55.5 -20 0
    endloop
  endfacet
  facet normal -1 0 0
    outer loop
      vertex -59.5 -16 0
      vertex -59.5 0 20
      vertex -59.5 0 0
    endloop
  endfacet
  facet normal -1 -0 0
    outer loop
      vertex -59.5 0 20
      vertex -59.5 -16 0
      vertex -59.5 -16 20
    endloop
  endfacet
  facet normal 0 1 -0
    outer loop
      vertex -10 0 0
      vertex -59.5 0 20
      vertex -10 0 20
    endloop
  endfacet
  facet normal 0 1 0
    outer loop
      vertex -59.5 0 20
      vertex -10 0 0
      vertex -59.5 0 0
    endloop
  endfacet
  facet normal 0 -1 0
    outer loop
      vertex -55.5 -4 0
      vertex -14 -4 20
      vertex -55.5 -4 20
    endloop
  endfacet
  facet normal 0 -1 -0
    outer loop
      vertex -14 -4 20
      vertex -55.5 -4 0
      vertex -14 -4 0
    endloop
  endfacet
  facet normal 1 -0 0
    outer loop
      vertex -10 -24 20
      vertex -10 0 0
      vertex -10 0 20
    endloop
  endfacet
  facet normal 1 0 0
    outer loop
      vertex -10 0 0
      vertex -10 -24 20
      vertex -10 -24 0
    endloop
  endfacet
  facet normal -1 0 0
    outer loop
      vertex -14 -20 0
      vertex -14 -4 20
      vertex -14 -4 0
    endloop
  endfacet
  facet normal -1 -0 0
    outer loop
      vertex -14 -4 20
      vertex -14 -20 0
      vertex -14 -20 20
    endloop
  endfacet
  facet normal 0 1 -0
    outer loop
      vertex -14 -20 0
      vertex -25 -20 20
      vertex -14 -20 20
    endloop
  endfacet
  facet normal 0 1 0
    outer loop
      vertex -25 -20 20
      vertex -14 -20 0
      vertex -25 -20 0
    endloop
  endfacet
  facet normal -1 0 0
    outer loop
      vertex -25 -24 0
      vertex -25 -20 20
      vertex -25 -20 0
    endloop
  endfacet
  facet normal -1 -0 0
    outer loop
      vertex -25 -20 20
      vertex -25 -24 0
      vertex -25 -24 20
    endloop
  endfacet
  facet normal 0 -1 0
    outer loop
      vertex -25 -24 0
      vertex -10 -24 20
      vertex -25 -24 20
    endloop
  endfacet
  facet normal 0 -1 -0
    outer loop
      vertex -10 -24 20
      vertex -25 -24 0
      vertex -10 -24 0
    endloop
  endfacet
endsolid OpenSCAD_Model
