solid OpenSCAD_Model
  facet normal -1 0 0
    outer loop
      vertex 64.5 -16 3.55271e-15
      vertex 64.5 -8.5 20
      vertex 64.5 -8.5 1.88738e-15
    endloop
  endfacet
  facet normal -1 -0 0
    outer loop
      vertex 64.5 -8.5 20
      vertex 64.5 -16 3.55271e-15
      vertex 64.5 -16 20
    endloop
  endfacet
  facet normal 0 1 -0
    outer loop
      vertex 64.5 -16 3.55271e-15
      vertex 49.5 -16 20
      vertex 64.5 -16 20
    endloop
  endfacet
  facet normal 0 1 0
    outer loop
      vertex 49.5 -16 20
      vertex 64.5 -16 3.55271e-15
      vertex 49.5 -16 3.55271e-15
    endloop
  endfacet
  facet normal 1 -0 0
    outer loop
      vertex 68.5 -20 20
      vertex 68.5 -4.5 9.99201e-16
      vertex 68.5 -4.5 20
    endloop
  endfacet
  facet normal 1 0 0
    outer loop
      vertex 68.5 -4.5 9.99201e-16
      vertex 68.5 -20 20
      vertex 68.5 -20 4.44089e-15
    endloop
  endfacet
  facet normal 0 0 1
    outer loop
      vertex 49.5 4.44089e-15 20
      vertex 45.5 -4 20
      vertex 49.5 -16 20
    endloop
  endfacet
  facet normal 0 0 1
    outer loop
      vertex 49.5 4.44089e-15 20
      vertex 4 -4 20
      vertex 45.5 -4 20
    endloop
  endfacet
  facet normal 0 0 1
    outer loop
      vertex 4 -4 20
      vertex 0 4.44089e-15 20
      vertex 4 -20 20
    endloop
  endfacet
  facet normal -0 0 1
    outer loop
      vertex 0 4.44089e-15 20
      vertex 4 -4 20
      vertex 49.5 4.44089e-15 20
    endloop
  endfacet
  facet normal 0 0 1
    outer loop
      vertex 68.5 -4.5 20
      vertex 64.5 -8.5 20
      vertex 68.5 -20 20
    endloop
  endfacet
  facet normal -0 0 1
    outer loop
      vertex 54.7 -4.5 20
      vertex 64.5 -8.5 20
      vertex 68.5 -4.5 20
    endloop
  endfacet
  facet normal 0 0 1
    outer loop
      vertex 64.5 -8.5 20
      vertex 54.7 -4.5 20
      vertex 54.7 -8.5 20
    endloop
  endfacet
  facet normal -0 0 1
    outer loop
      vertex 64.5 -16 20
      vertex 68.5 -20 20
      vertex 64.5 -8.5 20
    endloop
  endfacet
  facet normal -0 0 1
    outer loop
      vertex 49.5 -16 20
      vertex 68.5 -20 20
      vertex 64.5 -16 20
    endloop
  endfacet
  facet normal 0 0 1
    outer loop
      vertex 49.5 -16 20
      vertex 45.5 -20 20
      vertex 68.5 -20 20
    endloop
  endfacet
  facet normal 0 0 1
    outer loop
      vertex 45.5 -20 20
      vertex 49.5 -16 20
      vertex 45.5 -4 20
    endloop
  endfacet
  facet normal -0 0 1
    outer loop
      vertex 4 -20 20
      vertex 15 -24 20
      vertex 15 -20 20
    endloop
  endfacet
  facet normal 0 0 1
    outer loop
      vertex 4 -20 20
      vertex 0 -24 20
      vertex 15 -24 20
    endloop
  endfacet
  facet normal 0 0 1
    outer loop
      vertex 0 -24 20
      vertex 4 -20 20
      vertex 0 4.44089e-15 20
    endloop
  endfacet
  facet normal 0 1 -0
    outer loop
      vertex 68.5 -4.5 9.99201e-16
      vertex 54.7 -4.5 20
      vertex 68.5 -4.5 20
    endloop
  endfacet
  facet normal 0 1 0
    outer loop
      vertex 54.7 -4.5 20
      vertex 68.5 -4.5 9.99201e-16
      vertex 54.7 -4.5 9.99201e-16
    endloop
  endfacet
  facet normal 0 -2.22045e-16 -1
    outer loop
      vertex 15 -24 5.32907e-15
      vertex 4 -20 4.44089e-15
      vertex 15 -20 4.44089e-15
    endloop
  endfacet
  facet normal 0 -2.22045e-16 -1
    outer loop
      vertex 4 -20 4.44089e-15
      vertex 0 -24 5.32907e-15
      vertex 4 -4 8.88178e-16
    endloop
  endfacet
  facet normal 0 -2.22045e-16 -1
    outer loop
      vertex 0 -24 5.32907e-15
      vertex 4 -20 4.44089e-15
      vertex 15 -24 5.32907e-15
    endloop
  endfacet
  facet normal 0 -2.22045e-16 -1
    outer loop
      vertex 68.5 -20 4.44089e-15
      vertex 64.5 -16 3.55271e-15
      vertex 68.5 -4.5 9.99201e-16
    endloop
  endfacet
  facet normal 0 -2.22045e-16 -1
    outer loop
      vertex 68.5 -20 4.44089e-15
      vertex 49.5 -16 3.55271e-15
      vertex 64.5 -16 3.55271e-15
    endloop
  endfacet
  facet normal 0 -2.22045e-16 -1
    outer loop
      vertex 45.5 -20 4.44089e-15
      vertex 49.5 -16 3.55271e-15
      vertex 68.5 -20 4.44089e-15
    endloop
  endfacet
  facet normal 0 -2.22045e-16 -1
    outer loop
      vertex 45.5 -4 8.88178e-16
      vertex 49.5 -16 3.55271e-15
      vertex 45.5 -20 4.44089e-15
    endloop
  endfacet
  facet normal 0 -2.22045e-16 -1
    outer loop
      vertex 49.5 -16 3.55271e-15
      vertex 45.5 -4 8.88178e-16
      vertex 49.5 0 0
    endloop
  endfacet
  facet normal 0 -2.22045e-16 -1
    outer loop
      vertex 4 -4 8.88178e-16
      vertex 49.5 0 0
      vertex 45.5 -4 8.88178e-16
    endloop
  endfacet
  facet normal 0 -2.22045e-16 -1
    outer loop
      vertex 4 -4 8.88178e-16
      vertex 0 0 0
      vertex 49.5 0 0
    endloop
  endfacet
  facet normal 0 -2.22045e-16 -1
    outer loop
      vertex 0 0 0
      vertex 4 -4 8.88178e-16
      vertex 0 -24 5.32907e-15
    endloop
  endfacet
  facet normal 0 -2.22045e-16 -1
    outer loop
      vertex 64.5 -8.5 1.88738e-15
      vertex 68.5 -4.5 9.99201e-16
      vertex 64.5 -16 3.55271e-15
    endloop
  endfacet
  facet normal 0 -2.22045e-16 -1
    outer loop
      vertex 54.7 -4.5 9.99201e-16
      vertex 64.5 -8.5 1.88738e-15
      vertex 54.7 -8.5 1.88738e-15
    endloop
  endfacet
  facet normal 0 -2.22045e-16 -1
    outer loop
      vertex 64.5 -8.5 1.88738e-15
      vertex 54.7 -4.5 9.99201e-16
      vertex 68.5 -4.5 9.99201e-16
    endloop
  endfacet
  facet normal -1 0 0
    outer loop
      vertex 54.7 -8.5 1.88738e-15
      vertex 54.7 -4.5 20
      vertex 54.7 -4.5 9.99201e-16
    endloop
  endfacet
  facet normal -1 -0 0
    outer loop
      vertex 54.7 -4.5 20
      vertex 54.7 -8.5 1.88738e-15
      vertex 54.7 -8.5 20
    endloop
  endfacet
  facet normal 0 -1 0
    outer loop
      vertex 54.7 -8.5 1.88738e-15
      vertex 64.5 -8.5 20
      vertex 54.7 -8.5 20
    endloop
  endfacet
  facet normal 0 -1 -0
    outer loop
      vertex 64.5 -8.5 20
      vertex 54.7 -8.5 1.88738e-15
      vertex 64.5 -8.5 1.88738e-15
    endloop
  endfacet
  facet normal -1 0 0
    outer loop
      vertex 45.5 -20 4.44089e-15
      vertex 45.5 -4 20
      vertex 45.5 -4 8.88178e-16
    endloop
  endfacet
  facet normal -1 -0 0
    outer loop
      vertex 45.5 -4 20
      vertex 45.5 -20 4.44089e-15
      vertex 45.5 -20 20
    endloop
  endfacet
  facet normal 0 -1 0
    outer loop
      vertex 45.5 -20 4.44089e-15
      vertex 68.5 -20 20
      vertex 45.5 -20 20
    endloop
  endfacet
  facet normal 0 -1 -0
    outer loop
      vertex 68.5 -20 20
      vertex 45.5 -20 4.44089e-15
      vertex 68.5 -20 4.44089e-15
    endloop
  endfacet
  facet normal 1 -0 0
    outer loop
      vertex 49.5 -16 20
      vertex 49.5 0 0
      vertex 49.5 4.44089e-15 20
    endloop
  endfacet
  facet normal 1 0 0
    outer loop
      vertex 49.5 0 0
      vertex 49.5 -16 20
      vertex 49.5 -16 3.55271e-15
    endloop
  endfacet
  facet normal 0 1 -2.22045e-16
    outer loop
      vertex 49.5 0 0
      vertex 0 4.44089e-15 20
      vertex 49.5 4.44089e-15 20
    endloop
  endfacet
  facet normal 0 1 -2.22045e-16
    outer loop
      vertex 0 4.44089e-15 20
      vertex 49.5 0 0
      vertex 0 0 0
    endloop
  endfacet
  facet normal -1 0 0
    outer loop
      vertex 0 -24 5.32907e-15
      vertex 0 4.44089e-15 20
      vertex 0 0 0
    endloop
  endfacet
  facet normal -1 -0 0
    outer loop
      vertex 0 4.44089e-15 20
      vertex 0 -24 5.32907e-15
      vertex 0 -24 20
    endloop
  endfacet
  facet normal 0 -1 0
    outer loop
      vertex 4 -4 8.88178e-16
      vertex 45.5 -4 20
      vertex 4 -4 20
    endloop
  endfacet
  facet normal 0 -1 -0
    outer loop
      vertex 45.5 -4 20
      vertex 4 -4 8.88178e-16
      vertex 45.5 -4 8.88178e-16
    endloop
  endfacet
  facet normal 0 1 -0
    outer loop
      vertex 15 -20 4.44089e-15
      vertex 4 -20 20
      vertex 15 -20 20
    endloop
  endfacet
  facet normal 0 1 0
    outer loop
      vertex 4 -20 20
      vertex 15 -20 4.44089e-15
      vertex 4 -20 4.44089e-15
    endloop
  endfacet
  facet normal 1 -0 0
    outer loop
      vertex 4 -20 20
      vertex 4 -4 8.88178e-16
      vertex 4 -4 20
    endloop
  endfacet
  facet normal 1 0 0
    outer loop
      vertex 4 -4 8.88178e-16
      vertex 4 -20 20
      vertex 4 -20 4.44089e-15
    endloop
  endfacet
  facet normal 0 -1 0
    outer loop
      vertex 0 -24 5.32907e-15
      vertex 15 -24 20
      vertex 0 -24 20
    endloop
  endfacet
  facet normal 0 -1 -0
    outer loop
      vertex 15 -24 20
      vertex 0 -24 5.32907e-15
      vertex 15 -24 5.32907e-15
    endloop
  endfacet
  facet normal 1 -0 0
    outer loop
      vertex 15 -24 20
      vertex 15 -20 4.44089e-15
      vertex 15 -20 20
    endloop
  endfacet
  facet normal 1 0 0
    outer loop
      vertex 15 -20 4.44089e-15
      vertex 15 -24 20
      vertex 15 -24 5.32907e-15
    endloop
  endfacet
endsolid OpenSCAD_Model
